<?xml version="1.0" encoding="UTF-8"?>
<!DOCTYPE svg PUBLIC "-//W3C//DTD SVG 1.1//EN" "http://www.w3.org/Graphics/SVG/1.1/DTD/svg11.dtd">
<svg xmlns="http://www.w3.org/2000/svg" version="1.1" width="1200px" height="1200px" style="shape-rendering:geometricPrecision; text-rendering:geometricPrecision; image-rendering:optimizeQuality; fill-rule:evenodd; clip-rule:evenodd" xmlns:xlink="http://www.w3.org/1999/xlink">
<g><path style="opacity:0.999" fill="#d10214" d="M 7.5,7.5 C 402.5,7.5 797.5,7.5 1192.5,7.5C 1192.5,323.167 1192.5,638.833 1192.5,954.5C 797.5,954.5 402.5,954.5 7.5,954.5C 7.5,638.833 7.5,323.167 7.5,7.5 Z"/></g>
<g><path style="opacity:1" fill="#fefefe" d="M 433.5,503.5 C 417.339,502.338 401.005,502.172 384.5,503C 385.044,503.717 385.711,504.217 386.5,504.5C 394.49,507.491 401.823,511.491 408.5,516.5C 411.021,539.521 413.687,562.521 416.5,585.5C 413.833,585.833 411.167,586.167 408.5,586.5C 411.22,618.449 412.72,650.449 413,682.5C 411.859,693.95 406.692,703.117 397.5,710C 386.687,717.464 375.354,724.131 363.5,730C 363.461,732.297 363.128,734.63 362.5,737C 346.063,744.552 329.397,751.552 312.5,758C 277.191,770.213 242.191,783.213 207.5,797C 180.261,807.622 155.594,822.288 133.5,841C 122.969,851.525 113.969,863.192 106.5,876C 97.9763,879.232 91.9763,876.732 88.5,868.5C 89.1128,862.729 88.4461,857.396 86.5,852.5C 85.8826,852.389 85.3826,852.056 85,851.5C 84.3333,848.833 84.3333,846.167 85,843.5C 86.049,841.893 87.549,841.227 89.5,841.5C 89.2302,837.15 89.8968,832.983 91.5,829C 88.9763,825.437 88.9763,821.77 91.5,818C 93.1012,817.727 94.6012,817.227 96,816.5C 97.4131,813.339 99.0797,810.339 101,807.5C 108.432,799.404 115.099,790.737 121,781.5C 121.063,779.621 120.563,777.787 119.5,776C 119.731,771.271 122.064,768.104 126.5,766.5C 127.304,765.059 127.971,763.559 128.5,762C 126.416,754.834 129.083,750.834 136.5,750C 142.141,745.221 148.474,744.221 155.5,747C 175.923,760.623 195.256,759.29 213.5,743C 235.946,721.548 259.279,701.214 283.5,682C 296.077,672.546 310.077,666.046 325.5,662.5C 314.553,638.611 305.886,613.945 299.5,588.5C 295.424,588.32 291.591,587.32 288,585.5C 269.593,528.574 261.426,470.241 263.5,410.5C 260.735,410.798 258.235,411.798 256,413.5C 254.428,405.245 254.095,396.911 255,388.5C 258.864,347.515 266.197,307.182 277,267.5C 280.073,257.281 283.74,247.281 288,237.5C 297.161,232.672 306.661,228.505 316.5,225C 289.932,222.055 263.265,220.055 236.5,219C 207.333,244.167 178.167,269.333 149,294.5C 146.075,300.275 143.742,306.275 142,312.5C 128.46,327.769 111.46,336.103 91,337.5C 85.8736,337.793 81.5403,336.126 78,332.5C 77.3333,330.833 77.3333,329.167 78,327.5C 87.5435,321.792 96.0435,314.792 103.5,306.5C 103.167,306.167 102.833,305.833 102.5,305.5C 94.4693,310.505 85.8027,313.005 76.5,313C 74.4146,310.163 74.0813,307.163 75.5,304C 83.3735,300.712 91.0401,297.045 98.5,293C 103.467,287.031 108.801,281.365 114.5,276C 119.59,272.289 125.257,269.956 131.5,269C 158.738,233.558 187.404,199.224 217.5,166C 224.592,161.961 232.259,160.461 240.5,161.5C 240.576,158.027 241.242,154.694 242.5,151.5C 280.391,146.641 318.391,145.474 356.5,148C 370.356,149.106 384.022,151.273 397.5,154.5C 397.56,155.043 397.893,155.376 398.5,155.5C 399.491,151.555 399.824,147.555 399.5,143.5C 404.994,99.5018 429.661,80.6684 473.5,87C 495.41,93.2555 511.577,106.422 522,126.5C 522.977,129.241 523.477,132.075 523.5,135C 522.153,143.044 519.986,150.877 517,158.5C 516.503,170.218 516.837,181.885 518,193.5C 515.017,196.813 511.683,199.813 508,202.5C 501.446,212.942 495.946,223.942 491.5,235.5C 479.927,235.847 468.427,235.847 457,235.5C 435.953,277.476 420.786,321.476 411.5,367.5C 460.009,373.105 508.342,379.772 556.5,387.5C 557.58,390.332 558.58,393.165 559.5,396C 590.951,400.779 621.284,409.446 650.5,422C 659.5,422.333 668.5,422.667 677.5,423C 684.108,423.402 690.441,424.902 696.5,427.5C 698.422,426.289 700.255,424.956 702,423.5C 736.379,435.961 770.213,449.794 803.5,465C 856.452,486.042 911.452,496.042 968.5,495C 978.121,495.287 982.954,500.12 983,509.5C 980.5,511.333 978,513.167 975.5,515C 976.86,516.938 976.527,518.604 974.5,520C 971.179,522.849 967.846,523.016 964.5,520.5C 963.252,521.04 962.085,521.707 961,522.5C 960.648,526.521 958.482,529.021 954.5,530C 951.97,529.204 949.304,528.871 946.5,529C 931.38,535.727 916.38,542.727 901.5,550C 900.751,551.734 900.251,553.567 900,555.5C 896.056,558.953 892.39,558.953 889,555.5C 887.915,556.293 886.748,556.96 885.5,557.5C 884.866,562.801 881.866,565.801 876.5,566.5C 874.997,565.477 873.497,564.477 872,563.5C 859.732,567.529 852.065,563.196 849,550.5C 848.297,543.909 847.13,537.409 845.5,531C 844.846,529.013 843.513,527.68 841.5,527C 805.586,520.576 769.42,518.742 733,521.5C 716.953,521.432 701.12,519.598 685.5,516C 678.676,513.091 672.342,509.424 666.5,505C 662.065,502.449 657.399,500.449 652.5,499C 616.507,497.807 580.507,496.973 544.5,496.5C 544.326,498.861 543.993,501.194 543.5,503.5C 506.833,503.5 470.167,503.5 433.5,503.5 Z"/></g>
<g><path style="opacity:1" fill="#e3666f" d="M 399.5,143.5 C 399.824,147.555 399.491,151.555 398.5,155.5C 397.893,155.376 397.56,155.043 397.5,154.5C 398.167,150.833 398.833,147.167 399.5,143.5 Z"/></g>
<g><path style="opacity:1" fill="#fefefe" d="M 1048.5,344.5 C 1088.56,342.078 1114.06,360.078 1125,398.5C 1127.91,436.528 1111.41,461.695 1075.5,474C 1042.63,479.609 1017.8,468.109 1001,439.5C 986.305,400.575 996.805,370.742 1032.5,350C 1037.85,347.846 1043.18,346.013 1048.5,344.5 Z"/></g>
<g><path style="opacity:1" fill="#ed9aa1" d="M 433.5,503.5 C 417.658,503.17 401.991,503.504 386.5,504.5C 385.711,504.217 385.044,503.717 384.5,503C 401.005,502.172 417.339,502.338 433.5,503.5 Z"/></g>
<g><path style="opacity:1" fill="#e0535f" d="M 86.5,852.5 C 88.4461,857.396 89.1128,862.729 88.5,868.5C 87.7901,863.268 87.1235,857.935 86.5,852.5 Z"/></g>
<g><path style="opacity:0.98" fill="#181816" d="M 710.5,1060.5 C 725.541,1060.67 740.207,1063.01 754.5,1067.5C 754.5,1076.17 754.5,1084.83 754.5,1093.5C 741.968,1089.61 729.135,1087.27 716,1086.5C 710.293,1086.82 704.793,1087.98 699.5,1090C 692.91,1096.7 692.91,1103.37 699.5,1110C 713.871,1113.51 728.204,1117.18 742.5,1121C 752.612,1125.11 758.112,1132.61 759,1143.5C 763.043,1172.77 750.543,1189.27 721.5,1193C 702.33,1194.94 683.664,1192.77 665.5,1186.5C 664.167,1177.83 664.167,1169.17 665.5,1160.5C 683.051,1166.94 701.051,1168.78 719.5,1166C 727.647,1162.32 730.147,1156.15 727,1147.5C 726.167,1146.67 725.333,1145.83 724.5,1145C 711.379,1140.91 698.046,1137.57 684.5,1135C 672.78,1131.95 665.946,1124.45 664,1112.5C 661.574,1098.86 663.907,1086.19 671,1074.5C 675.064,1070.21 679.897,1067.05 685.5,1065C 693.793,1062.47 702.127,1060.97 710.5,1060.5 Z"/></g>
<g><path style="opacity:0.987" fill="#181817" d="M 1004.5,1060.5 C 1019.85,1060.69 1034.85,1063.03 1049.5,1067.5C 1049.5,1076.17 1049.5,1084.83 1049.5,1093.5C 1032.53,1087.91 1015.2,1086.08 997.5,1088C 988.047,1089.45 981.547,1094.62 978,1103.5C 973.842,1118.41 973.508,1133.41 977,1148.5C 979.911,1160.22 987.411,1166.72 999.5,1168C 1007.86,1168.67 1016.19,1168.5 1024.5,1167.5C 1024.5,1158.5 1024.5,1149.5 1024.5,1140.5C 1016.5,1140.5 1008.5,1140.5 1000.5,1140.5C 1000.5,1132.5 1000.5,1124.5 1000.5,1116.5C 1017.5,1116.5 1034.5,1116.5 1051.5,1116.5C 1051.5,1140.17 1051.5,1163.83 1051.5,1187.5C 1025.94,1194.73 1000.27,1195.23 974.5,1189C 953.609,1179.75 942.776,1163.59 942,1140.5C 939.302,1120.06 942.635,1100.73 952,1082.5C 960.208,1071.8 971.042,1065.3 984.5,1063C 991.308,1062.12 997.975,1061.28 1004.5,1060.5 Z"/></g>
<g><path style="opacity:0.985" fill="#191916" d="M 7.5,1063.5 C 32.8355,1063.33 58.1689,1063.5 83.5,1064C 102.84,1066.17 112.507,1077.01 112.5,1096.5C 113.099,1110.17 107.099,1119.33 94.5,1124C 92.1218,1124.51 89.7885,1125.18 87.5,1126C 110.511,1130.56 119.011,1144.39 113,1167.5C 108.608,1182.63 98.4415,1190.47 82.5,1191C 57.5022,1191.5 32.5022,1191.67 7.5,1191.5C 7.5,1148.83 7.5,1106.17 7.5,1063.5 Z M 39.5,1085.5 C 50.5637,1085.09 61.5637,1085.59 72.5,1087C 77.9632,1089.91 80.6299,1094.58 80.5,1101C 80.5231,1106.95 78.1897,1111.62 73.5,1115C 62.2298,1116.41 50.8965,1116.91 39.5,1116.5C 39.5,1106.17 39.5,1095.83 39.5,1085.5 Z M 39.5,1137.5 C 50.8382,1137.33 62.1716,1137.5 73.5,1138C 79.6804,1141.18 82.6804,1146.35 82.5,1153.5C 82.8115,1160.05 80.1448,1164.88 74.5,1168C 62.8725,1169.3 51.2058,1169.8 39.5,1169.5C 39.5,1158.83 39.5,1148.17 39.5,1137.5 Z"/></g>
<g><path style="opacity:0.975" fill="#181816" d="M 133.5,1063.5 C 144.5,1063.5 155.5,1063.5 166.5,1063.5C 166.333,1093.84 166.5,1124.17 167,1154.5C 167.92,1159.19 170.42,1162.69 174.5,1165C 184.5,1168.33 194.5,1168.33 204.5,1165C 208.58,1162.69 211.08,1159.19 212,1154.5C 212.5,1124.17 212.667,1093.84 212.5,1063.5C 223.5,1063.5 234.5,1063.5 245.5,1063.5C 245.667,1094.5 245.5,1125.5 245,1156.5C 243.679,1172.14 235.845,1182.97 221.5,1189C 200.167,1195 178.833,1195 157.5,1189C 142.686,1182.84 134.853,1171.67 134,1155.5C 133.5,1124.84 133.333,1094.17 133.5,1063.5 Z"/></g>
<g><path style="opacity:0.984" fill="#181816" d="M 271.5,1063.5 C 284.85,1063.17 298.183,1063.5 311.5,1064.5C 328.467,1093.96 345.634,1123.3 363,1152.5C 363.5,1122.84 363.667,1093.17 363.5,1063.5C 373.833,1063.5 384.167,1063.5 394.5,1063.5C 394.5,1106.17 394.5,1148.83 394.5,1191.5C 381.163,1191.67 367.829,1191.5 354.5,1191C 336.622,1161.41 319.122,1131.58 302,1101.5C 301.5,1131.5 301.333,1161.5 301.5,1191.5C 291.5,1191.5 281.5,1191.5 271.5,1191.5C 271.5,1148.83 271.5,1106.17 271.5,1063.5 Z"/></g>
<g><path style="opacity:0.986" fill="#181816" d="M 419.5,1063.5 C 443.169,1063.33 466.836,1063.5 490.5,1064C 508.109,1064.65 520.609,1072.82 528,1088.5C 534.908,1113.06 535.241,1137.72 529,1162.5C 521.355,1181.44 507.188,1190.94 486.5,1191C 464.169,1191.5 441.836,1191.67 419.5,1191.5C 419.5,1148.83 419.5,1106.17 419.5,1063.5 Z M 452.5,1088.5 C 462.172,1088.33 471.839,1088.5 481.5,1089C 490.991,1090.49 496.491,1095.99 498,1105.5C 500,1120.17 500,1134.83 498,1149.5C 495.595,1159.24 489.429,1164.74 479.5,1166C 470.506,1166.5 461.506,1166.67 452.5,1166.5C 452.5,1140.5 452.5,1114.5 452.5,1088.5 Z"/></g>
<g><path style="opacity:0.972" fill="#191916" d="M 555.5,1063.5 C 585.5,1063.5 615.5,1063.5 645.5,1063.5C 645.5,1071.83 645.5,1080.17 645.5,1088.5C 626.5,1088.5 607.5,1088.5 588.5,1088.5C 588.5,1097.17 588.5,1105.83 588.5,1114.5C 604.167,1114.5 619.833,1114.5 635.5,1114.5C 635.5,1122.83 635.5,1131.17 635.5,1139.5C 619.833,1139.5 604.167,1139.5 588.5,1139.5C 588.5,1148.5 588.5,1157.5 588.5,1166.5C 607.833,1166.5 627.167,1166.5 646.5,1166.5C 646.5,1174.83 646.5,1183.17 646.5,1191.5C 616.167,1191.5 585.833,1191.5 555.5,1191.5C 555.5,1148.83 555.5,1106.17 555.5,1063.5 Z"/></g>
<g><path style="opacity:0.959" fill="#191917" d="M 780.5,1063.5 C 791.5,1063.5 802.5,1063.5 813.5,1063.5C 813.5,1097.83 813.5,1132.17 813.5,1166.5C 831.833,1166.5 850.167,1166.5 868.5,1166.5C 868.5,1174.83 868.5,1183.17 868.5,1191.5C 839.167,1191.5 809.833,1191.5 780.5,1191.5C 780.5,1148.83 780.5,1106.17 780.5,1063.5 Z"/></g>
<g><path style="opacity:0.987" fill="#191917" d="M 886.5,1063.5 C 897.5,1063.5 908.5,1063.5 919.5,1063.5C 919.5,1106.17 919.5,1148.83 919.5,1191.5C 908.5,1191.5 897.5,1191.5 886.5,1191.5C 886.5,1148.83 886.5,1106.17 886.5,1063.5 Z"/></g>
<g><path style="opacity:0.981" fill="#181816" d="M 1108.5,1063.5 C 1122.75,1063.18 1136.91,1063.51 1151,1064.5C 1166.14,1106.76 1180.97,1149.09 1195.5,1191.5C 1184.5,1191.5 1173.5,1191.5 1162.5,1191.5C 1159.83,1182.5 1157.17,1173.5 1154.5,1164.5C 1138.16,1164.33 1121.83,1164.5 1105.5,1165C 1102.41,1173.45 1099.41,1181.95 1096.5,1190.5C 1085.5,1191.83 1074.5,1191.83 1063.5,1190.5C 1078.8,1148.24 1093.8,1105.91 1108.5,1063.5 Z M 1129.5,1086.5 C 1135.57,1104.22 1141.57,1122.05 1147.5,1140C 1135.82,1140.83 1124.15,1140.67 1112.5,1139.5C 1118.37,1121.88 1124.04,1104.22 1129.5,1086.5 Z"/></g>
</svg>
