<?xml version="1.0" encoding="UTF-8"?>
<!DOCTYPE svg PUBLIC "-//W3C//DTD SVG 1.1//EN" "http://www.w3.org/Graphics/SVG/1.1/DTD/svg11.dtd">
<svg xmlns="http://www.w3.org/2000/svg" version="1.1" width="1200px" height="1688px" style="shape-rendering:geometricPrecision; text-rendering:geometricPrecision; image-rendering:optimizeQuality; fill-rule:evenodd; clip-rule:evenodd" xmlns:xlink="http://www.w3.org/1999/xlink">
<g><path style="opacity:0.996" fill="#951a7f" d="M 532.5,-0.5 C 535.833,-0.5 539.167,-0.5 542.5,-0.5C 545.88,3.82441 547.714,8.82441 548,14.5C 562,89.8333 576,165.167 590,240.5C 590.667,243.5 590.667,246.5 590,249.5C 589.5,251.333 588.333,252.5 586.5,253C 511.569,266.858 451.736,304.358 407,365.5C 401.604,373.234 396.604,381.234 392,389.5C 390.503,391.677 388.503,393.01 386,393.5C 382.616,392.928 379.449,391.761 376.5,390C 308.997,350.414 241.331,311.081 173.5,272C 168.768,269.962 166.601,266.462 167,261.5C 237.907,139.632 340.74,57.1317 475.5,14C 494.426,8.35239 513.426,3.51906 532.5,-0.5 Z"/></g>
<g><path style="opacity:0.997" fill="#e40512" d="M 664.5,58.5 C 805.363,55.5018 929.363,99.0018 1036.5,189C 1040.03,191.707 1041.2,195.207 1040,199.5C 985.873,262.629 931.373,325.462 876.5,388C 874.5,388.667 872.5,388.667 870.5,388C 802.945,330.599 724.945,307.932 636.5,320C 634.513,318.681 633.346,316.848 633,314.5C 621.427,235.819 609.76,157.153 598,78.5C 597.333,75.1667 597.333,71.8333 598,68.5C 599.214,66.9512 600.714,65.7845 602.5,65C 623.23,61.9611 643.896,59.7944 664.5,58.5 Z"/></g>
<g><path style="opacity:0.995" fill="#014f9f" d="M 78.5,267.5 C 85.6305,268.557 92.2972,271.057 98.5,275C 166.008,311.588 233.674,347.921 301.5,384C 303.066,385.684 304.066,387.684 304.5,390C 263.365,467.531 258.199,547.365 289,629.5C 289.706,631.971 289.373,634.305 288,636.5C 210.416,667.808 132.416,698.141 54,727.5C 51.7635,726.944 49.7635,725.944 48,724.5C 11.2252,630.65 1.2252,533.983 18,434.5C 28.1694,378.324 46.5027,324.991 73,274.5C 74.3823,271.695 76.2156,269.361 78.5,267.5 Z"/></g>
<g><path style="opacity:0.995" fill="#f28800" d="M 1199.5,649.5 C 1199.5,665.5 1199.5,681.5 1199.5,697.5C 1200.17,705.006 1196.67,709.006 1189,709.5C 1112.85,705.47 1036.68,701.637 960.5,698C 954.39,697.912 948.39,697.245 942.5,696C 941.214,693.978 940.214,691.811 939.5,689.5C 943.234,603.344 914.067,530.677 852,471.5C 849.154,468.081 848.82,464.414 851,460.5C 907.135,400.697 963.635,341.197 1020.5,282C 1024,280.033 1027.33,280.367 1030.5,283C 1134.22,382.96 1190.55,505.127 1199.5,649.5 Z"/></g>
<g><path style="opacity:0.985" fill="#1d1d1b" d="M 586.5,408.5 C 658.066,410.193 714.566,439.86 756,497.5C 795.156,559.88 800.822,625.213 773,693.5C 740.591,759.979 687.758,799.145 614.5,811C 546.12,818.1 487.954,797.266 440,748.5C 387.869,687.849 373.869,619.182 398,542.5C 422.467,479.366 466.967,437.533 531.5,417C 549.648,411.974 567.981,409.14 586.5,408.5 Z"/></g>
<g><path style="opacity:1" fill="#fefefe" d="M 533.5,433.5 C 534.239,433.369 534.906,433.536 535.5,434C 529.531,438.967 523.865,444.301 518.5,450C 540.156,448.154 560.989,451.321 581,459.5C 583.533,477.459 586.033,495.459 588.5,513.5C 590.994,496.218 593.161,478.884 595,461.5C 595.374,460.584 595.874,459.75 596.5,459C 616.796,450.871 637.796,448.205 659.5,451C 653.762,444.592 647.429,438.925 640.5,434C 682.169,445.842 715.502,469.509 740.5,505C 733.766,501.714 726.933,498.214 720,494.5C 721.564,500.526 723.564,506.526 726,512.5C 730.884,527.226 732.217,542.226 730,557.5C 713.184,565.33 696.351,573.163 679.5,581C 697.86,577.962 716.194,574.462 734.5,570.5C 749.04,587.247 758.54,606.581 763,628.5C 767.136,621.895 770.469,614.895 773,607.5C 773.881,650.187 761.548,688.52 736,722.5C 737.297,716.286 738.464,709.953 739.5,703.5C 739.167,702.5 738.833,701.5 738.5,700.5C 722.661,715.586 703.995,725.086 682.5,729C 670.351,715.35 658.018,701.85 645.5,688.5C 645.167,688.667 644.833,688.833 644.5,689C 653.897,704.962 662.897,721.129 671.5,737.5C 660.798,757.037 645.464,771.87 625.5,782C 633.048,783.841 640.715,785.174 648.5,786C 608.478,798.611 568.478,798.611 528.5,786C 535.899,784.849 543.233,783.516 550.5,782C 531.075,771.409 515.742,756.575 504.5,737.5C 514.51,721.135 523.676,704.468 532,687.5C 519.534,701.634 506.701,715.467 493.5,729C 472.434,724.8 454.1,715.3 438.5,700.5C 438.167,701.667 437.833,702.833 437.5,704C 438.736,709.831 439.569,715.664 440,721.5C 414.973,688.083 402.973,650.416 404,608.5C 406.806,615.446 410.139,622.112 414,628.5C 418.422,606.322 428.089,586.989 443,570.5C 461.076,574.782 479.242,578.282 497.5,581C 480.649,573.163 463.816,565.33 447,557.5C 444.236,535.816 447.736,515.149 457.5,495.5C 457.333,495.167 457.167,494.833 457,494.5C 450.067,498.214 443.234,501.714 436.5,505C 461.058,470.607 493.392,446.774 533.5,433.5 Z"/></g>
<g><path style="opacity:1" fill="#1d1d1b" d="M 587.5,525.5 C 588.922,525.709 590.255,526.209 591.5,527C 614.22,544.054 637.22,560.72 660.5,577C 663.86,579.366 666.86,582.033 669.5,585C 659.56,616.818 649.227,648.485 638.5,680C 605.167,680.667 571.833,680.667 538.5,680C 528.141,649.257 517.975,618.423 508,587.5C 507.333,586.167 507.333,584.833 508,583.5C 534.682,564.303 561.182,544.97 587.5,525.5 Z"/></g>
<g><path style="opacity:0.996" fill="#0090d7" d="M -0.5,801.5 C -0.5,798.833 -0.5,796.167 -0.5,793.5C 75.9977,759.504 152.831,726.171 230,693.5C 232.923,693.795 235.257,695.129 237,697.5C 272.388,776.947 331.555,829.78 414.5,856C 416.91,857.562 418.244,859.729 418.5,862.5C 394.507,941.646 370.007,1020.65 345,1099.5C 343.355,1101.66 341.188,1103 338.5,1103.5C 202.972,1060.86 99.1385,978.523 27,856.5C 17.2601,838.354 8.09346,820.02 -0.5,801.5 Z"/></g>
<g><path style="opacity:0.996" fill="#feed00" d="M 868.5,724.5 C 951.179,730.77 1033.85,737.27 1116.5,744C 1120.72,745.56 1122.39,748.56 1121.5,753C 1108.24,899.194 1047.24,1020.86 938.5,1118C 927.455,1127.38 916.121,1136.38 904.5,1145C 898.555,1149.7 893.388,1148.86 889,1142.5C 842.386,1078.22 795.386,1014.22 748,950.5C 744.334,945.506 744.834,941.006 749.5,937C 818.655,885.374 856.822,816.208 864,729.5C 865.025,727.313 866.525,725.646 868.5,724.5 Z"/></g>
<g><path style="opacity:0.997" fill="#00963e" d="M 668.5,898.5 C 670.857,898.337 673.19,898.503 675.5,899C 723.034,967.896 769.701,1037.4 815.5,1107.5C 814.818,1110.37 813.484,1112.87 811.5,1115C 687.59,1195.98 552.59,1223.32 406.5,1197C 392.427,1193.98 378.427,1190.65 364.5,1187C 360.705,1184.96 359.205,1181.79 360,1177.5C 381.822,1099.21 403.489,1020.88 425,942.5C 426.396,939.216 428.896,937.549 432.5,937.5C 517.301,960.144 595.967,947.144 668.5,898.5 Z"/></g>
<g><path style="opacity:0.981" fill="#1c1c1a" d="M 651.5,1299.5 C 684.17,1299.67 699.337,1316 697,1348.5C 689.34,1371.93 673.174,1382.09 648.5,1379C 629.113,1373.1 618.779,1359.93 617.5,1339.5C 619.21,1317.8 630.543,1304.47 651.5,1299.5 Z"/></g>
<g><path style="opacity:0.988" fill="#1c1c1a" d="M 2.5,1340.5 C 26.5,1340.5 50.5,1340.5 74.5,1340.5C 74.5,1410.17 74.5,1479.83 74.5,1549.5C 102.833,1549.5 131.167,1549.5 159.5,1549.5C 159.5,1570.17 159.5,1590.83 159.5,1611.5C 107.5,1611.5 55.5,1611.5 3.5,1611.5C 2.88373,1521.17 2.5504,1430.83 2.5,1340.5 Z"/></g>
<g><path style="opacity:0.981" fill="#1d1d1a" d="M 439.5,1340.5 C 463.5,1340.5 487.5,1340.5 511.5,1340.5C 511.5,1410.17 511.5,1479.83 511.5,1549.5C 539.833,1549.5 568.167,1549.5 596.5,1549.5C 596.5,1570.17 596.5,1590.83 596.5,1611.5C 544.167,1611.5 491.833,1611.5 439.5,1611.5C 439.5,1521.17 439.5,1430.83 439.5,1340.5 Z"/></g>
<g><path style="opacity:0.985" fill="#1c1c1a" d="M 261.5,1390.5 C 290.46,1386.99 315.294,1395.32 336,1415.5C 336.5,1408.51 336.666,1401.51 336.5,1394.5C 358.5,1394.5 380.5,1394.5 402.5,1394.5C 402.5,1466.83 402.5,1539.17 402.5,1611.5C 380.167,1611.5 357.833,1611.5 335.5,1611.5C 335.666,1605.16 335.5,1598.82 335,1592.5C 304.028,1618.1 269.528,1623.93 231.5,1610C 206.271,1599.77 188.771,1581.94 179,1556.5C 166.012,1522.34 166.345,1488.34 180,1454.5C 196.24,1419.08 223.406,1397.74 261.5,1390.5 Z M 283.5,1451.5 C 318.121,1452.62 336.454,1470.45 338.5,1505C 335.709,1537.12 318.209,1554.62 286,1557.5C 254.631,1553.29 238.464,1535.29 237.5,1503.5C 239.126,1473.88 254.459,1456.55 283.5,1451.5 Z"/></g>
<g><path style="opacity:0.987" fill="#1c1c1a" d="M 846.5,1687.5 C 834.833,1687.5 823.167,1687.5 811.5,1687.5C 787.746,1684.63 766.413,1675.8 747.5,1661C 733.73,1647.63 725.063,1631.46 721.5,1612.5C 746.493,1611.33 771.493,1611.17 796.5,1612C 804.164,1624.25 815.33,1630.08 830,1629.5C 862.266,1628.58 876.599,1612.25 873,1580.5C 842.381,1606.19 808.547,1611.35 771.5,1596C 741.233,1579.01 723.733,1553.18 719,1518.5C 714.312,1485.6 720.979,1455.27 739,1427.5C 762.901,1396.97 794.067,1385.14 832.5,1392C 849.661,1396 864.161,1404.5 876,1417.5C 876.5,1409.84 876.666,1402.17 876.5,1394.5C 897.5,1394.5 918.5,1394.5 939.5,1394.5C 939.667,1463.17 939.5,1531.83 939,1600.5C 933.835,1639.34 913.001,1665.84 876.5,1680C 866.575,1683.35 856.575,1685.85 846.5,1687.5 Z M 819.5,1447.5 C 851.527,1444.71 870.361,1459.04 876,1490.5C 878.281,1511.43 871.115,1528.26 854.5,1541C 836.769,1550.97 819.102,1550.97 801.5,1541C 784.615,1525.33 778.781,1506.17 784,1483.5C 788.748,1464.25 800.581,1452.25 819.5,1447.5 Z"/></g>
<g><path style="opacity:0.986" fill="#1c1c1a" d="M 1199.5,1394.5 C 1199.5,1466.83 1199.5,1539.17 1199.5,1611.5C 1177.17,1611.5 1154.83,1611.5 1132.5,1611.5C 1132.67,1605.16 1132.5,1598.82 1132,1592.5C 1106.95,1613.97 1078.11,1621.47 1045.5,1615C 1015.01,1608.51 992.847,1591.35 979,1563.5C 962.472,1525.79 962.472,1488.12 979,1450.5C 1006.57,1399.75 1048.41,1381.58 1104.5,1396C 1115.03,1400.43 1124.37,1406.59 1132.5,1414.5C 1133.5,1407.87 1133.83,1401.2 1133.5,1394.5C 1155.5,1394.5 1177.5,1394.5 1199.5,1394.5 Z M 1080.5,1451.5 C 1114.9,1452.57 1133.24,1470.24 1135.5,1504.5C 1133.03,1536.63 1115.7,1554.3 1083.5,1557.5C 1051.87,1553.53 1035.54,1535.53 1034.5,1503.5C 1036.18,1473.84 1051.51,1456.5 1080.5,1451.5 Z"/></g>
<g><path style="opacity:0.989" fill="#1d1c1b" d="M 624.5,1394.5 C 646.5,1394.5 668.5,1394.5 690.5,1394.5C 690.5,1466.83 690.5,1539.17 690.5,1611.5C 668.5,1611.5 646.5,1611.5 624.5,1611.5C 624.5,1539.17 624.5,1466.83 624.5,1394.5 Z"/></g>
</svg>
